<?xml version="1.0" standalone="no"?>
<!DOCTYPE svg PUBLIC "-//W3C//DTD SVG 20010904//EN"
 "http://www.w3.org/TR/2001/REC-SVG-20010904/DTD/svg10.dtd">
<svg version="1.0" xmlns="http://www.w3.org/2000/svg"
 width="1280.000000pt" height="1280.000000pt" viewBox="0 0 1280.000000 1280.000000"
 preserveAspectRatio="xMidYMid meet">

<g transform="translate(0.000000,1280.000000) scale(0.100000,-0.100000)"
fill="#000000" stroke="none">
<path d="M3680 6415 l0 -3685 2735 0 2735 0 0 1630 0 1630 -1105 0 -1105 0 0
-525 0 -525 -525 0 -525 0 0 1470 0 1470 525 0 525 0 0 -525 0 -525 1105 0
1105 0 0 1635 0 1635 -2735 0 -2735 0 0 -3685z m4730 2045 l0 -900 -370 0
-370 0 0 530 0 530 -1257 -2 c-1191 -3 -1258 -4 -1257 -20 1 -10 2 -1001 3
-2203 l1 -2185 1255 0 1255 0 0 525 0 525 376 0 375 0 -4 -897 c-3 -494 -6
-899 -6 -900 -1 -2 -901 -3 -2001 -3 l-2000 0 0 2950 0 2950 2000 0 2000 0 0
-900z"/>
</g>
</svg>
